HIERARCHY
ROOT Hips
{
	OFFSET 0.000000 0.794594 0.001814
	CHANNELS 6 Xposition Yposition Zposition Zrotation Xrotation Yrotation
	JOINT Spine
	{
		OFFSET -0.000000 0.051920 0.010783
		CHANNELS 3 Zrotation Xrotation Yrotation
		JOINT Chest
		{
			OFFSET 0.000000 0.111800 0.002643
			CHANNELS 3 Zrotation Xrotation Yrotation
			JOINT UpperChest
			{
				OFFSET 0.000011 0.124994 0.000757
				CHANNELS 3 Zrotation Xrotation Yrotation
				JOINT Neck
				{
					OFFSET 0.000112 0.117645 -0.020286
					CHANNELS 3 Zrotation Xrotation Yrotation
					JOINT Head
					{
						OFFSET 0.000009 0.074358 -0.000161
						CHANNELS 3 Zrotation Xrotation Yrotation
						JOINT LeftEye
						{
							OFFSET 0.019846 0.051735 0.040589
							CHANNELS 3 Zrotation Xrotation Yrotation
							End Site
							{
								OFFSET -0.000199 0.054090 0.042333
							}
						}
						JOINT RightEye
						{
							OFFSET -0.020226 0.051740 0.040395
							CHANNELS 3 Zrotation Xrotation Yrotation
							End Site
							{
								OFFSET -0.000199 0.054090 0.042333
							}
						}
					}
				}
				JOINT LeftShoulder
				{
					OFFSET 0.022481 0.089795 -0.017340
					CHANNELS 3 Zrotation Xrotation Yrotation
					JOINT LeftUpperArm
					{
						OFFSET 0.087730 -0.000010 0.000425
						CHANNELS 3 Zrotation Xrotation Yrotation
						JOINT LeftLowerArm
						{
							OFFSET 0.210364 0.001461 0.000713
							CHANNELS 3 Zrotation Xrotation Yrotation
							JOINT LeftHand
							{
								OFFSET 0.205444 0.001377 0.000711
								CHANNELS 3 Zrotation Xrotation Yrotation
								JOINT LeftIndexProximal
								{
									OFFSET 0.064499 0.001525 0.020305
									CHANNELS 3 Zrotation Xrotation Yrotation
									JOINT LeftIndexIntermediate
									{
										OFFSET 0.033222 0.000012 0.000212
										CHANNELS 3 Zrotation Xrotation Yrotation
										JOINT LeftIndexDistal
										{
											OFFSET 0.020455 0.000007 0.000130
											CHANNELS 3 Zrotation Xrotation Yrotation
											End Site
											{
												OFFSET 0.020455 0.000007 0.000130
											}
										}
									}
								}
								JOINT LeftLittleProximal
								{
									OFFSET 0.062854 -0.001936 -0.027845
									CHANNELS 3 Zrotation Xrotation Yrotation
									JOINT LeftLittleIntermediate
									{
										OFFSET 0.031399 0.000011 0.000200
										CHANNELS 3 Zrotation Xrotation Yrotation
										JOINT LeftLittleDistal
										{
											OFFSET 0.018096 0.000006 0.000115
											CHANNELS 3 Zrotation Xrotation Yrotation
											End Site
											{
												OFFSET 0.018096 0.000006 0.000115
											}
										}
									}
								}
								JOINT LeftMiddleProximal
								{
									OFFSET 0.066609 0.003801 0.003549
									CHANNELS 3 Zrotation Xrotation Yrotation
									JOINT LeftMiddleIntermediate
									{
										OFFSET 0.037005 0.000013 0.000236
										CHANNELS 3 Zrotation Xrotation Yrotation
										JOINT LeftMiddleDistal
										{
											OFFSET 0.022829 0.000008 0.000145
											CHANNELS 3 Zrotation Xrotation Yrotation
											End Site
											{
												OFFSET 0.022829 0.000008 0.000145
											}
										}
									}
								}
								JOINT LeftRingProximal
								{
									OFFSET 0.066900 0.003343 -0.012193
									CHANNELS 3 Zrotation Xrotation Yrotation
									JOINT LeftRingIntermediate
									{
										OFFSET 0.034327 0.000012 0.000219
										CHANNELS 3 Zrotation Xrotation Yrotation
										JOINT LeftRingDistal
										{
											OFFSET 0.019811 0.000007 0.000126
											CHANNELS 3 Zrotation Xrotation Yrotation
											End Site
											{
												OFFSET 0.019811 0.000007 0.000126
											}
										}
									}
								}
								JOINT LeftThumbProximal
								{
									OFFSET 0.001848 -0.006641 0.017858
									CHANNELS 3 Zrotation Xrotation Yrotation
									JOINT LeftThumbIntermediate
									{
										OFFSET 0.030326 -0.003605 0.035110
										CHANNELS 3 Zrotation Xrotation Yrotation
										JOINT LeftThumbDistal
										{
											OFFSET 0.019149 -0.004135 0.020870
											CHANNELS 3 Zrotation Xrotation Yrotation
											End Site
											{
												OFFSET 0.019149 -0.004134 0.020871
											}
										}
									}
								}
							}
						}
					}
				}
				JOINT RightShoulder
				{
					OFFSET -0.022291 0.089803 -0.017557
					CHANNELS 3 Zrotation Xrotation Yrotation
					JOINT RightUpperArm
					{
						OFFSET -0.087729 0.000010 -0.000425
						CHANNELS 3 Zrotation Xrotation Yrotation
						JOINT RightLowerArm
						{
							OFFSET -0.210401 0.000107 -0.000861
							CHANNELS 3 Zrotation Xrotation Yrotation
							JOINT RightHand
							{
								OFFSET -0.205447 0.000040 -0.000840
								CHANNELS 3 Zrotation Xrotation Yrotation
								JOINT RightIndexProximal
								{
									OFFSET -0.064690 0.001511 0.019688
									CHANNELS 3 Zrotation Xrotation Yrotation
									JOINT RightIndexIntermediate
									{
										OFFSET -0.033222 0.000005 -0.000106
										CHANNELS 3 Zrotation Xrotation Yrotation
										JOINT RightIndexDistal
										{
											OFFSET -0.020455 0.000003 -0.000065
											CHANNELS 3 Zrotation Xrotation Yrotation
											End Site
											{
												OFFSET -0.020455 0.000003 -0.000065
											}
										}
									}
								}
								JOINT RightLittleProximal
								{
									OFFSET -0.062585 -0.001949 -0.028444
									CHANNELS 3 Zrotation Xrotation Yrotation
									JOINT RightLittleIntermediate
									{
										OFFSET -0.031399 0.000005 -0.000100
										CHANNELS 3 Zrotation Xrotation Yrotation
										JOINT RightLittleDistal
										{
											OFFSET -0.018096 0.000003 -0.000057
											CHANNELS 3 Zrotation Xrotation Yrotation
											End Site
											{
												OFFSET -0.018096 0.000003 -0.000057
											}
										}
									}
								}
								JOINT RightMiddleProximal
								{
									OFFSET -0.066640 0.003787 0.002913
									CHANNELS 3 Zrotation Xrotation Yrotation
									JOINT RightMiddleIntermediate
									{
										OFFSET -0.037006 0.000005 -0.000118
										CHANNELS 3 Zrotation Xrotation Yrotation
										JOINT RightMiddleDistal
										{
											OFFSET -0.022829 0.000003 -0.000072
											CHANNELS 3 Zrotation Xrotation Yrotation
											End Site
											{
												OFFSET -0.022829 0.000003 -0.000072
											}
										}
									}
								}
								JOINT RightRingProximal
								{
									OFFSET -0.066782 0.003329 -0.012831
									CHANNELS 3 Zrotation Xrotation Yrotation
									JOINT RightRingIntermediate
									{
										OFFSET -0.034327 0.000005 -0.000109
										CHANNELS 3 Zrotation Xrotation Yrotation
										JOINT RightRingDistal
										{
											OFFSET -0.019810 0.000003 -0.000063
											CHANNELS 3 Zrotation Xrotation Yrotation
											End Site
											{
												OFFSET -0.019810 0.000003 -0.000063
											}
										}
									}
								}
								JOINT RightThumbProximal
								{
									OFFSET -0.002017 -0.006641 0.017839
									CHANNELS 3 Zrotation Xrotation Yrotation
									JOINT RightThumbIntermediate
									{
										OFFSET -0.032510 -0.005699 0.032803
										CHANNELS 3 Zrotation Xrotation Yrotation
										JOINT RightThumbDistal
										{
											OFFSET -0.020784 -0.005081 0.019013
											CHANNELS 3 Zrotation Xrotation Yrotation
											End Site
											{
												OFFSET -0.020784 -0.005081 0.019013
											}
										}
									}
								}
							}
						}
					}
				}
			}
		}
	}
	JOINT LeftUpperLeg
	{
		OFFSET 0.077122 -0.039594 -0.005714
		CHANNELS 3 Zrotation Xrotation Yrotation
		JOINT LeftLowerLeg
		{
			OFFSET 0.000000 -0.343087 0.003694
			CHANNELS 3 Zrotation Xrotation Yrotation
			JOINT LeftFoot
			{
				OFFSET 0.000000 -0.401029 -0.031329
				CHANNELS 3 Zrotation Xrotation Yrotation
				JOINT LeftToes
				{
					OFFSET 0.000000 -0.001594 0.127952
					CHANNELS 3 Zrotation Xrotation Yrotation
					End Site
					{
						OFFSET -0.000000 -0.001594 0.127952
					}
				}
			}
		}
	}
	JOINT RightUpperLeg
	{
		OFFSET -0.077122 -0.039594 -0.005714
		CHANNELS 3 Zrotation Xrotation Yrotation
		JOINT RightLowerLeg
		{
			OFFSET -0.000000 -0.343087 0.003695
			CHANNELS 3 Zrotation Xrotation Yrotation
			JOINT RightFoot
			{
				OFFSET 0.000000 -0.401029 -0.031326
				CHANNELS 3 Zrotation Xrotation Yrotation
				JOINT RightToes
				{
					OFFSET 0.000000 -0.001593 0.127952
					CHANNELS 3 Zrotation Xrotation Yrotation
					End Site
					{
						OFFSET -0.000000 -0.001593 0.127952
					}
				}
			}
		}
	}
}
MOTION
Frames: 7
Frame Time: 0.016667
0.010413 0.784960 -0.046711 -1.684085 5.642383 -8.294622 -1.577987 6.100615 -0.347018 4.140152 0.859278 0.388953 0.452458 -0.108113 -0.088588 -5.059105 -2.310863 -1.437965 -0.102830 -4.890577 7.031049 -0.000037 -0.000078 -0.000023 -0.000037 -0.000078 -0.000024 12.219812 0.439168 1.692605 -96.594659 -12.459494 -28.676075 29.049703 -5.080421 -134.721014 62.480638 -62.001459 48.802876 -43.929485 8.483410 9.823466 -67.105051 0.647778 -1.769817 -55.275030 -1.096774 -2.244146 -85.122558 -1.055325 -2.810511 -94.146631 0.086486 0.094589 -91.737849 0.086694 0.091278 -62.800830 2.749804 9.147864 -74.727843 0.084167 0.065089 -71.089763 0.082537 0.059768 -71.322789 0.066507 4.466550 -88.108703 0.087079 0.085334 -80.619373 0.085986 0.073889 -28.076708 53.916492 18.588787 -18.111517 4.121030 48.642234 4.816758 5.395135 39.629973 -13.669546 0.491759 -1.868208 77.190112 15.479994 31.272366 0.961962 -3.233505 132.824011 -26.400407 -27.514104 -7.577725 49.898183 8.952390 -12.770230 68.751291 0.643519 1.792942 60.525851 -1.072690 2.486080 84.059644 -1.084785 2.199883 87.807792 0.095049 -0.091911 88.058241 0.095102 -0.092680 64.339084 2.495611 -9.172334 67.857472 0.088447 -0.059499 67.614078 0.088255 -0.059122 70.029971 0.175135 -4.468159 72.847034 0.091215 -0.067338 73.305005 0.091402 -0.068024 32.366122 13.533982 -36.740557 -7.882288 5.809946 -12.695640 -10.582395 5.455728 -50.820200 1.137697 -21.198998 -5.859087 0.001705 24.164854 0.023727 -4.851465 -5.812493 1.850757 -0.000000 0.000000 0.000001 4.327023 -15.439528 24.700722 -0.003092 21.021149 -0.042783 8.555585 -3.716965 0.806261 -0.000000 -0.000001 0.000000 
0.010446 0.784960 -0.046706 -1.692810 5.633965 -8.322521 -1.574995 6.092938 -0.349784 4.141253 0.853205 0.387986 0.453420 -0.114179 -0.089619 -5.058517 -2.305653 -1.438828 -0.110600 -4.822979 6.982387 -0.000034 -0.000050 -0.000043 -0.000034 -0.000052 -0.000043 12.219810 0.439181 1.692605 -96.654936 -12.483638 -28.649495 29.050055 -5.081134 -134.723036 62.473288 -62.002080 48.805568 -43.929472 8.483406 9.823456 -67.105031 0.647787 -1.769799 -55.275034 -1.096753 -2.244160 -85.122551 -1.055306 -2.810509 -94.146651 0.086482 0.094589 -91.737855 0.086711 0.091280 -62.800844 2.749802 9.147844 -74.727870 0.084166 0.065094 -71.089763 0.082540 0.059768 -71.322775 0.066503 4.466510 -88.108716 0.087067 0.085331 -80.619373 0.085973 0.073874 -28.076666 53.916499 18.588751 -18.111512 4.121048 48.642224 4.816748 5.395137 39.629977 -13.669533 0.491753 -1.868210 77.210876 15.524883 31.246872 0.964565 -3.233048 132.868052 -26.444672 -27.519729 -7.645658 49.898186 8.952378 -12.770229 68.751298 0.643512 1.792925 60.525837 -1.072681 2.486078 84.059644 -1.084782 2.199877 87.807792 0.095041 -0.091906 88.058262 0.095106 -0.092686 64.339084 2.495619 -9.172330 67.857472 0.088426 -0.059488 67.614105 0.088253 -0.059122 70.029998 0.175129 -4.468157 72.847048 0.091197 -0.067349 73.304998 0.091421 -0.068032 32.366139 13.533984 -36.740578 -7.882282 5.809948 -12.695654 -10.582390 5.455718 -50.820193 1.152654 -21.171276 -5.831678 0.003344 24.155128 0.023735 -4.848928 -5.820166 1.853290 0.000000 0.000000 -0.000001 4.336844 -15.424459 24.725732 -0.003797 21.010347 -0.042779 8.558505 -3.710821 0.809223 -0.000000 -0.000001 -0.000002 
0.010479 0.784961 -0.046699 -1.701586 5.625016 -8.349017 -1.572141 6.084087 -0.352222 4.142444 0.847221 0.387041 0.454471 -0.120167 -0.090626 -5.058048 -2.300986 -1.439776 -0.121249 -4.758619 6.932819 -0.000003 -0.000119 0.000019 -0.000004 -0.000119 0.000019 12.219805 0.439178 1.692595 -96.715356 -12.515034 -28.617089 29.055724 -5.085767 -134.734347 62.475795 -61.998542 48.819119 -43.929478 8.483401 9.823463 -67.105038 0.647785 -1.769811 -55.275027 -1.096758 -2.244155 -85.122558 -1.055324 -2.810518 -94.146631 0.086458 0.094591 -91.737835 0.086682 0.091286 -62.800857 2.749800 9.147861 -74.727870 0.084162 0.065097 -71.089756 0.082542 0.059754 -71.322796 0.066501 4.466533 -88.108675 0.087077 0.085328 -80.619393 0.085985 0.073888 -28.076691 53.916489 18.588783 -18.111520 4.121048 48.642227 4.816765 5.395131 39.629949 -13.669539 0.491751 -1.868203 77.234994 15.564825 31.219494 0.966757 -3.232645 132.908883 -26.487204 -27.519770 -7.710392 49.898183 8.952390 -12.770231 68.751291 0.643511 1.792939 60.525851 -1.072686 2.486085 84.059637 -1.084789 2.199872 87.807799 0.095052 -0.091911 88.058262 0.095109 -0.092685 64.339084 2.495623 -9.172323 67.857492 0.088431 -0.059474 67.614078 0.088248 -0.059128 70.029991 0.175126 -4.468166 72.847082 0.091219 -0.067333 73.304978 0.091396 -0.068020 32.366135 13.533976 -36.740578 -7.882277 5.809949 -12.695660 -10.582400 5.455716 -50.820197 1.167213 -21.130090 -5.805749 0.006051 24.132312 0.023761 -4.846345 -5.827645 1.855889 -0.000001 0.000000 0.000000 4.346010 -15.410512 24.749223 -0.003553 21.001172 -0.042750 8.561332 -3.704972 0.812097 -0.000000 -0.000000 -0.000001 
0.010512 0.784962 -0.046689 -1.710344 5.616066 -8.375496 -1.569229 6.075154 -0.354610 4.143632 0.841235 0.386099 0.455523 -0.126144 -0.091627 -5.057554 -2.296397 -1.440660 -0.131877 -4.697557 6.881069 -0.000026 -0.000093 -0.000032 -0.000026 -0.000093 -0.000032 12.219826 0.439175 1.692606 -96.776937 -12.546047 -28.583992 29.061359 -5.090323 -134.745603 62.478186 -61.994997 48.832427 -43.929489 8.483411 9.823458 -67.105058 0.647768 -1.769808 -55.275003 -1.096754 -2.244131 -85.122537 -1.055306 -2.810503 -94.146658 0.086493 0.094562 -91.737855 0.086681 0.091272 -62.800837 2.749816 9.147858 -74.727870 0.084171 0.065083 -71.089743 0.082536 0.059768 -71.322782 0.066521 4.466531 -88.108703 0.087091 0.085332 -80.619387 0.085991 0.073873 -28.076659 53.916492 18.588763 -18.111510 4.121034 48.642241 4.816760 5.395141 39.629977 -13.669547 0.491754 -1.868203 77.262028 15.604902 31.191223 0.967421 -3.232229 132.949673 -26.529614 -27.519546 -7.775043 49.898179 8.952385 -12.770206 68.751291 0.643508 1.792935 60.525831 -1.072690 2.486085 84.059644 -1.084780 2.199888 87.807792 0.095042 -0.091910 88.058289 0.095108 -0.092696 64.339098 2.495610 -9.172311 67.857465 0.088437 -0.059512 67.614078 0.088260 -0.059124 70.029998 0.175135 -4.468158 72.847048 0.091202 -0.067340 73.304985 0.091420 -0.068041 32.366153 13.533973 -36.740564 -7.882289 5.809961 -12.695660 -10.582382 5.455709 -50.820197 1.180633 -21.156171 -5.780169 0.002985 24.177084 0.023692 -4.843747 -5.835669 1.858479 -0.000000 0.000000 -0.000001 4.355365 -15.394538 24.772838 -0.004241 20.990493 -0.042707 8.564083 -3.699405 0.814914 0.000000 -0.000000 -0.000001 
0.010545 0.784962 -0.046677 -1.718720 5.607088 -8.399231 -1.566302 6.065511 -0.357571 4.144812 0.835296 0.385134 0.456566 -0.132087 -0.092654 -5.057270 -2.292897 -1.441538 -0.145763 -4.652633 6.827565 0.000020 -0.000141 -0.000017 0.000020 -0.000141 -0.000017 12.219813 0.439177 1.692603 -96.835417 -12.586550 -28.547250 29.069545 -5.097732 -134.764263 62.488868 -61.988413 48.855192 -43.929472 8.483414 9.823450 -67.105044 0.647777 -1.769811 -55.275027 -1.096772 -2.244156 -85.122564 -1.055304 -2.810505 -94.146651 0.086487 0.094566 -91.737835 0.086688 0.091275 -62.800837 2.749811 9.147850 -74.727870 0.084163 0.065078 -71.089756 0.082539 0.059770 -71.322782 0.066522 4.466512 -88.108716 0.087057 0.085330 -80.619400 0.085986 0.073879 -28.076693 53.916492 18.588766 -18.111500 4.121042 48.642227 4.816767 5.395150 39.629994 -13.669540 0.491754 -1.868204 77.289833 15.638336 31.162369 0.970589 -3.231841 132.988988 -26.567484 -27.513725 -7.834285 49.898200 8.952394 -12.770217 68.751298 0.643498 1.792942 60.525844 -1.072694 2.486096 84.059644 -1.084781 2.199891 87.807826 0.095028 -0.091912 88.058248 0.095120 -0.092700 64.339084 2.495618 -9.172323 67.857499 0.088446 -0.059475 67.614057 0.088243 -0.059127 70.029998 0.175138 -4.468153 72.847034 0.091207 -0.067343 73.304998 0.091411 -0.068024 32.366166 13.533981 -36.740561 -7.882302 5.809942 -12.695659 -10.582377 5.455728 -50.820221 1.193356 -21.134087 -5.757435 0.003997 24.173206 0.023712 -4.841109 -5.843108 1.861132 -0.000000 0.000000 -0.000000 4.363588 -15.379423 24.793701 -0.004491 20.981130 -0.042699 8.566694 -3.694583 0.817649 -0.000000 -0.000001 0.000001 
0.010578 0.784963 -0.046662 -1.727734 5.598057 -8.422985 -1.563048 6.055866 -0.360480 4.145994 0.829352 0.384169 0.457602 -0.138024 -0.093670 -5.056966 -2.289374 -1.442450 -0.160617 -4.607004 6.774183 -0.000010 -0.000173 -0.000010 -0.000010 -0.000175 -0.000010 12.219812 0.439173 1.692600 -96.896349 -12.625775 -28.509082 29.079045 -5.105634 -134.783811 62.499680 -61.981754 48.877974 -43.929485 8.483405 9.823470 -67.105038 0.647782 -1.769801 -55.275034 -1.096772 -2.244155 -85.122558 -1.055314 -2.810503 -94.146638 0.086494 0.094576 -91.737835 0.086682 0.091265 -62.800864 2.749805 9.147864 -74.727857 0.084161 0.065087 -71.089763 0.082534 0.059762 -71.322796 0.066491 4.466533 -88.108696 0.087060 0.085346 -80.619393 0.085995 0.073895 -28.076720 53.916506 18.588792 -18.111508 4.121040 48.642234 4.816771 5.395139 39.629973 -13.669547 0.491754 -1.868208 77.318643 15.671683 31.132958 0.974015 -3.231421 133.028603 -26.605359 -27.507745 -7.893533 49.898179 8.952378 -12.770212 68.751291 0.643510 1.792933 60.525803 -1.072682 2.486088 84.059637 -1.084786 2.199891 87.807805 0.095038 -0.091913 88.058241 0.095097 -0.092689 64.339084 2.495618 -9.172314 67.857499 0.088436 -0.059502 67.614078 0.088250 -0.059129 70.029998 0.175128 -4.468148 72.847048 0.091201 -0.067345 73.304992 0.091412 -0.068030 32.366153 13.533972 -36.740575 -7.882295 5.809936 -12.695651 -10.582386 5.455730 -50.820207 1.206211 -21.139138 -5.734773 0.002758 24.197207 0.023663 -4.838477 -5.851273 1.863784 0.000000 -0.000000 0.000001 4.372253 -15.363896 24.814641 -0.004586 20.971314 -0.042667 8.569214 -3.689626 0.820270 -0.000000 -0.000001 0.000001 
0.010610 0.784964 -0.046645 -1.736973 5.589274 -8.442602 -1.558976 6.046195 -0.364785 4.147071 0.823420 0.383131 0.458539 -0.143946 -0.094754 -5.056871 -2.287444 -1.443201 -0.179209 -4.584585 6.719900 -0.000026 -0.000134 -0.000032 -0.000026 -0.000136 -0.000032 12.219792 0.439168 1.692602 -96.955369 -12.670751 -28.468450 29.090814 -5.115784 -134.808974 62.516605 -61.973551 48.907826 -43.929485 8.483406 9.823448 -67.105010 0.647769 -1.769806 -55.275041 -1.096773 -2.244143 -85.122551 -1.055300 -2.810510 -94.146651 0.086472 0.094569 -91.737835 0.086684 0.091287 -62.800830 2.749809 9.147856 -74.727891 0.084167 0.065090 -71.089743 0.082545 0.059774 -71.322796 0.066495 4.466532 -88.108655 0.087085 0.085346 -80.619393 0.085995 0.073880 -28.076693 53.916485 18.588758 -18.111503 4.121037 48.642234 4.816761 5.395152 39.629980 -13.669549 0.491749 -1.868209 77.353108 15.699857 31.102243 0.974922 -3.231027 133.067590 -26.636590 -27.496914 -7.946018 49.898172 8.952378 -12.770226 68.751311 0.643511 1.792942 60.525844 -1.072692 2.486085 84.059630 -1.084796 2.199896 87.807805 0.095022 -0.091906 88.058262 0.095120 -0.092692 64.339084 2.495612 -9.172328 67.857492 0.088416 -0.059476 67.614078 0.088250 -0.059135 70.029991 0.175118 -4.468171 72.847048 0.091218 -0.067327 73.304978 0.091420 -0.068026 32.366146 13.533966 -36.740578 -7.882286 5.809955 -12.695666 -10.582380 5.455709 -50.820207 1.218494 -21.104774 -5.716207 0.004835 24.181137 0.023677 -4.835900 -5.858915 1.866376 0.000000 -0.000000 -0.000000 4.379870 -15.350755 24.831522 -0.003407 20.963445 -0.042639 8.571488 -3.685035 0.822616 -0.000000 -0.000001 -0.000001 
